<svg width="20" height="20" viewBox="0 0 20 20" fill="none" xmlns="http://www.w3.org/2000/svg">
<g clip-path="url(#clip0_2_160)">
<path d="M10 12.8571C11.7752 12.8571 13.2143 11.4181 13.2143 9.64286C13.2143 7.86766 11.7752 6.42857 10 6.42857C8.2248 6.42857 6.78571 7.86766 6.78571 9.64286C6.78571 11.4181 8.2248 12.8571 10 12.8571Z" stroke="#CFD1D4" stroke-linecap="round" stroke-linejoin="round"/>
<path d="M15.7143 19.2857C15.1735 18.2364 14.3542 17.3562 13.3462 16.7418C12.3382 16.1273 11.1805 15.8022 10 15.8022C8.8195 15.8022 7.66179 16.1273 6.65381 16.7418C5.64584 17.3562 4.82653 18.2364 4.28571 19.2857" stroke="#CFD1D4" stroke-linecap="round" stroke-linejoin="round"/>
<path d="M17.1429 15.0857C18.1566 13.7634 18.7802 12.1839 18.943 10.5257C19.1058 8.86747 18.8014 7.19679 18.0641 5.70259C17.3269 4.20839 16.1863 2.95029 14.7713 2.07058C13.3563 1.19087 11.7233 0.724648 10.0571 0.724648C8.39097 0.724648 6.75803 1.19087 5.34302 2.07058C3.92801 2.95029 2.78738 4.20839 2.05015 5.70259C1.31292 7.19679 1.00849 8.86747 1.1713 10.5257C1.33411 12.1839 1.95766 13.7634 2.97143 15.0857" stroke="#CFD1D4" stroke-linecap="round" stroke-linejoin="round"/>
</g>
<defs>
<clipPath id="clip0_2_160">
<rect width="20" height="20" fill="white"/>
</clipPath>
</defs>
</svg>
