<svg width="20" height="20" viewBox="0 0 20 20" fill="none" xmlns="http://www.w3.org/2000/svg">
<path d="M0.714287 14.6429C0.714287 12.1801 1.6926 9.81827 3.43401 8.07686C5.17542 6.33545 7.53728 5.35714 10 5.35714C12.4627 5.35714 14.8246 6.33545 16.566 8.07686C18.3074 9.81827 19.2857 12.1801 19.2857 14.6429" stroke="#CFD1D4" stroke-linecap="round" stroke-linejoin="round"/>
<path d="M4.28571 14.6429C4.28571 13.1273 4.88775 11.6739 5.95939 10.6022C7.03102 9.5306 8.48448 8.92857 10 8.92857C11.5155 8.92857 12.969 9.5306 14.0406 10.6022C15.1122 11.6739 15.7143 13.1273 15.7143 14.6429" stroke="#CFD1D4" stroke-linecap="round" stroke-linejoin="round"/>
<path d="M7.85715 14.6429C7.85715 14.0745 8.08291 13.5295 8.48478 13.1276C8.88664 12.7258 9.43168 12.5 10 12.5C10.5683 12.5 11.1134 12.7258 11.5152 13.1276C11.9171 13.5295 12.1429 14.0745 12.1429 14.6429" stroke="#CFD1D4" stroke-linecap="round" stroke-linejoin="round"/>
</svg>
